<svg width="48" height="48" viewBox="0 0 49 49" fill="none" xmlns="http://www.w3.org/2000/svg">
    <path d="M39.8071 19C39.8071 17.8954 38.9117 17 37.8071 17H32.3071V20H35.8071C36.3594 20 36.8071 20.4477 36.8071 21V28C36.8071 28.5523 36.3594 29 35.8071 29H32.3071V32H37.8071C38.9117 32 39.8071 31.1046 39.8071 30V19Z" fill="#7E9AB7"/>
    <path d="M26.3071 17H11.8071C10.7026 17 9.80713 17.8954 9.80713 19V30C9.80713 31.1046 10.7026 32 11.8071 32H26.3071V29H13.8071C13.2548 29 12.8071 28.5523 12.8071 28V21C12.8071 20.4477 13.2548 20 13.8071 20H26.3071V17Z" fill="#7E9AB7"/>
    <path d="M32.3071 14V35C32.3071 35.3978 32.4652 35.7794 32.7465 36.0607C33.0278 36.342 33.4093 36.5 33.8071 36.5H36.8071V39.5H33.0571C32.2321 39.5 30.8071 38.825 30.8071 38C30.8071 38.825 29.3821 39.5 28.5571 39.5H24.8071V36.5H27.8071C28.205 36.5 28.5865 36.342 28.8678 36.0607C29.1491 35.7794 29.3071 35.3978 29.3071 35V14C29.3071 13.6022 29.1491 13.2206 28.8678 12.9393C28.5865 12.658 28.205 12.5 27.8071 12.5H24.8071V9.5H28.5571C29.3821 9.5 30.8071 10.175 30.8071 11C30.8071 10.175 32.2321 9.5 33.0571 9.5H36.8071V12.5H33.8071C33.4093 12.5 33.0278 12.658 32.7465 12.9393C32.4652 13.2206 32.3071 13.6022 32.3071 14Z" fill="#57ACDC"/>
</svg>
