<svg width="48" height="48" viewBox="0 0 49 49" fill="none" xmlns="http://www.w3.org/2000/svg">
    <path fill-rule="evenodd" clip-rule="evenodd" d="M24.8072 26.587C29.8017 26.587 33.8507 22.5381 33.8507 17.5435C33.8507 12.5489 29.8017 8.5 24.8072 8.5C19.8126 8.5 15.7637 12.5489 15.7637 17.5435C15.7637 22.5381 19.8126 26.587 24.8072 26.587ZM24.8077 23.2477C27.9581 23.2477 30.5121 20.6938 30.5121 17.5434C30.5121 14.3929 27.9581 11.839 24.8077 11.839C21.6573 11.839 19.1034 14.3929 19.1034 17.5434C19.1034 20.6938 21.6573 23.2477 24.8077 23.2477Z" fill="#7E9AB7"/>
    <path d="M38.3681 40.5001C38.1836 33.169 32.1828 27.2827 24.8072 27.2827C17.4316 27.2827 11.4309 33.169 11.2463 40.5001H14.5875C14.7709 35.0135 19.2765 30.6219 24.8077 30.6219C30.339 30.6219 34.8446 35.0135 35.028 40.5001H38.3681Z" fill="#276BB0"/>
</svg>
