<svg width="48" height="48" viewBox="0 0 49 49" fill="none" xmlns="http://www.w3.org/2000/svg">
    <g clip-path="url(#clip0_518_35)">
        <path d="M39.9798 28.9449H29.9562C29.6528 28.9457 29.362 29.0665 29.1475 29.2811C28.9329 29.4956 28.812 29.7864 28.8113 30.0899V32.7863H31.5925V32.3459C31.5928 32.1816 31.6582 32.0242 31.7744 31.908C31.8905 31.7919 32.048 31.7265 32.2122 31.7261H37.728C37.8921 31.7265 38.0494 31.7919 38.1653 31.9081C38.2812 32.0243 38.3463 32.1817 38.3463 32.3459V32.7863H41.1289V30.0899C41.1282 29.7857 41.0067 29.4943 40.7913 29.2796C40.5758 29.0649 40.2839 28.9445 39.9798 28.9449V28.9449Z" fill="#D72323"/>
        <path d="M38.3422 37.5991C38.3422 37.7632 38.2771 37.9206 38.1612 38.0368C38.0452 38.153 37.888 38.2185 37.7238 38.2188H32.2081C32.0438 38.2185 31.8864 38.153 31.7702 38.0369C31.6541 37.9208 31.5887 37.7633 31.5883 37.5991V37.1586H28.8071V39.8551C28.8079 40.1585 28.9287 40.4493 29.1433 40.6638C29.3579 40.8784 29.6486 40.9993 29.9521 41H39.9756C40.279 40.9993 40.5698 40.8784 40.7844 40.6638C40.9989 40.4493 41.1198 40.1585 41.1205 39.8551V37.1586H38.3422V37.5991Z" fill="#D72323"/>
        <path d="M31.5883 33.5811H28.8071V36.3623H31.5883V33.5811Z" fill="#D72323"/>
        <path d="M41.1247 33.5811H38.3435V36.3623H41.1247V33.5811Z" fill="#D72323"/>
    </g>
    <path d="M26.8071 36.5H15.8071V12.5H27.8071V18.5H33.8071V26.9448H36.8071V18.5L27.8071 9.5H15.8071C15.0115 9.5 14.2484 9.81607 13.6858 10.3787C13.1232 10.9413 12.8071 11.7043 12.8071 12.5V36.5C12.8071 37.2956 13.1232 38.0587 13.6858 38.6213C14.2484 39.1839 15.0115 39.5 15.8071 39.5H26.8071V36.5Z" fill="#276BB0"/>
    <defs>
        <clipPath id="clip0_518_35">
            <rect width="12.2824" height="12" fill="white" transform="translate(28.8071 29)"/>
        </clipPath>
    </defs>
</svg>
