<svg width="48" height="48" viewBox="0 0 49 49" fill="none" xmlns="http://www.w3.org/2000/svg">
    <path fill-rule="evenodd" clip-rule="evenodd" d="M8.80713 12.647C8.80713 12.0947 9.25484 11.647 9.80713 11.647H39.8071C40.3594 11.647 40.8071 12.0947 40.8071 12.647V15.647C40.8071 16.1993 40.3594 16.647 39.8071 16.647H9.80713C9.25484 16.647 8.80713 16.1993 8.80713 15.647V12.647Z" fill="#CED1D6"/>
    <path fill-rule="evenodd" clip-rule="evenodd" d="M8.80713 19.647C8.80713 19.0947 9.25484 18.647 9.80713 18.647H39.8071C40.3594 18.647 40.8071 19.0947 40.8071 19.647V22.647C40.8071 23.1993 40.3594 23.647 39.8071 23.647H9.80713C9.25484 23.647 8.80713 23.1993 8.80713 22.647V19.647Z" fill="#CED1D6"/>
    <path fill-rule="evenodd" clip-rule="evenodd" d="M8.80713 26.647C8.80713 26.0947 9.25484 25.647 9.80713 25.647H39.8071C40.3594 25.647 40.8071 26.0947 40.8071 26.647V29.647C40.8071 30.1993 40.3594 30.647 39.8071 30.647H9.80713C9.25484 30.647 8.80713 30.1993 8.80713 29.647V26.647Z" fill="#CED1D6"/>
    <path d="M39.8071 32.647H26.8071C26.2548 32.647 25.8071 33.0947 25.8071 33.647V36.647C25.8071 37.1993 26.2548 37.647 26.8071 37.647H39.8071C40.3594 37.647 40.8071 37.1993 40.8071 36.647V33.647C40.8071 33.0947 40.3594 32.647 39.8071 32.647Z" fill="#D72323"/>
    <rect x="8.80713" y="32.647" width="15" height="5" rx="1" fill="#57ACDC"/>
</svg>
