<svg width="48" height="48" viewBox="0 0 49 49" fill="none" xmlns="http://www.w3.org/2000/svg">
    <path fill-rule="evenodd" clip-rule="evenodd" d="M24.8072 26.587C29.8017 26.587 33.8507 22.5381 33.8507 17.5435C33.8507 12.5489 29.8017 8.5 24.8072 8.5C19.8126 8.5 15.7637 12.5489 15.7637 17.5435C15.7637 22.5381 19.8126 26.587 24.8072 26.587ZM24.8077 23.2477C27.9581 23.2477 30.5121 20.6938 30.5121 17.5434C30.5121 14.3929 27.9581 11.839 24.8077 11.839C21.6573 11.839 19.1034 14.3929 19.1034 17.5434C19.1034 20.6938 21.6573 23.2477 24.8077 23.2477Z" fill="#7E9AB7"/>
    <path fill-rule="evenodd" clip-rule="evenodd" d="M31.5659 29.0837C29.5761 27.938 27.2682 27.2827 24.8072 27.2827C17.4316 27.2827 11.4309 33.169 11.2463 40.5001H14.5875C14.7709 35.0135 19.2765 30.6219 24.8077 30.6219C26.3743 30.6219 27.8585 30.9741 29.1856 31.6037C29.7561 30.5778 30.5771 29.7102 31.5659 29.0837Z" fill="#276BB0"/>
    <g clip-path="url(#clip0_518_36)">
        <circle cx="35.3071" cy="35" r="6" fill="white"/>
        <path d="M34.9142 29.0032C34.8884 29.0056 34.8062 29.0138 34.7323 29.0196C33.028 29.1733 31.4315 30.0928 30.4203 31.5061C29.8573 32.2919 29.4972 33.1833 29.3611 34.1274C29.313 34.457 29.3071 34.5543 29.3071 35.0012C29.3071 35.448 29.313 35.5454 29.3611 35.8749C29.6872 38.128 31.2907 40.021 33.4655 40.7223C33.8549 40.8478 34.2655 40.9334 34.7323 40.985C34.9142 41.005 35.7001 41.005 35.8819 40.985C36.6878 40.8959 37.3705 40.6965 38.0438 40.3529C38.147 40.3001 38.167 40.286 38.1529 40.2743C38.1435 40.2673 37.7036 39.6773 37.1758 38.9642L36.2162 37.6682L35.0139 35.889C34.3523 34.9109 33.808 34.111 33.8033 34.111C33.7986 34.1098 33.7939 34.9003 33.7916 35.8656C33.7881 37.5556 33.7869 37.6237 33.7658 37.6635C33.7353 37.721 33.7118 37.7445 33.6626 37.7703C33.625 37.789 33.5922 37.7926 33.415 37.7926H33.2121L33.1582 37.7585C33.123 37.7363 33.0972 37.7069 33.0796 37.6729L33.0549 37.6201L33.0573 35.2686L33.0608 32.9159L33.0972 32.8701C33.1159 32.8455 33.1558 32.8138 33.184 32.7986C33.2321 32.7751 33.2508 32.7728 33.4538 32.7728C33.6931 32.7728 33.7329 32.7821 33.7951 32.8502C33.8127 32.8689 34.4637 33.8494 35.2426 35.0305C36.0215 36.2116 37.0866 37.8242 37.6098 38.6159L38.5599 40.055L38.608 40.0233C39.0338 39.7465 39.4843 39.3524 39.8409 38.9419C40.5998 38.0705 41.0889 37.0079 41.2532 35.8749C41.3013 35.5454 41.3071 35.448 41.3071 35.0012C41.3071 34.5543 41.3013 34.457 41.2532 34.1274C40.9271 31.8744 39.3236 29.9814 37.1488 29.28C36.7652 29.1557 36.357 29.0701 35.8995 29.0185C35.7869 29.0067 35.0115 28.9938 34.9142 29.0032ZM37.3705 32.632C37.4268 32.6602 37.4725 32.7141 37.4889 32.7704C37.4983 32.8009 37.5007 33.453 37.4983 34.9226L37.4948 37.0314L37.123 36.4614L36.7499 35.8914V34.3585C36.7499 33.3674 36.7546 32.8103 36.7617 32.7833C36.7804 32.7176 36.8215 32.666 36.8778 32.6355C36.9259 32.6109 36.9435 32.6086 37.1277 32.6086C37.3013 32.6086 37.3318 32.6109 37.3705 32.632Z" fill="black"/>
    </g>
    <defs>
        <clipPath id="clip0_518_36">
            <rect width="12" height="12" fill="white" transform="translate(29.3071 29)"/>
        </clipPath>
    </defs>
</svg>
