<svg width="48" height="48" viewBox="0 0 49 49" fill="none" xmlns="http://www.w3.org/2000/svg">
    <path d="M35.3071 26C35.8171 26 36.3121 26.06 36.8071 26.135V21.5C36.8071 19.85 35.4721 18.5 33.8071 18.5H32.3071V15.5C32.3071 11.36 28.9471 8 24.8071 8C20.6671 8 17.3071 11.36 17.3071 15.5V18.5H15.8071C14.1571 18.5 12.8071 19.835 12.8071 21.5V36.5C12.8071 38.165 14.1421 39.5 15.8071 39.5H27.5221C26.7571 38.18 26.3071 36.65 26.3071 35C26.3071 30.035 30.3421 26 35.3071 26ZM20.3071 15.5C20.3071 13.01 22.3171 11 24.8071 11C27.2971 11 29.3071 13.01 29.3071 15.5V18.5H20.3071V15.5ZM24.8071 32C23.1571 32 21.8071 30.665 21.8071 29C21.8071 27.335 23.1571 26 24.8071 26C26.4571 26 27.8071 27.335 27.8071 29C27.8071 30.665 26.4721 32 24.8071 32Z" fill="#57ACDC"/>
    <path d="M33.4321 39.4998L40.5571 32.3748L38.8171 30.2598L33.4321 35.6448L31.0471 33.2598L29.3071 34.9998L33.4321 39.4998Z" fill="#7EB77F"/>
</svg>
