<svg width="48" height="48" viewBox="0 0 49 49" fill="none" xmlns="http://www.w3.org/2000/svg">
    <path d="M24.8071 36.5C22.0224 36.5 19.3516 35.3938 17.3825 33.4246C15.4134 31.4555 14.3071 28.7848 14.3071 26C14.3071 23.2152 15.4134 20.5445 17.3825 18.5754C19.3516 16.6062 22.0224 15.5 24.8071 15.5C27.5919 15.5 30.2626 16.6062 32.2318 18.5754C34.2009 20.5445 35.3071 23.2152 35.3071 26C35.3071 28.7848 34.2009 31.4555 32.2318 33.4246C30.2626 35.3938 27.5919 36.5 24.8071 36.5ZM35.3521 17.585L37.4821 15.455C36.8071 14.69 36.1321 14 35.3671 13.34L33.2371 15.5C30.9121 13.61 27.9871 12.5 24.8071 12.5C21.2267 12.5 17.7929 13.9223 15.2612 16.4541C12.7294 18.9858 11.3071 22.4196 11.3071 26C11.3071 29.5804 12.7294 33.0142 15.2612 35.5459C17.7929 38.0777 21.2267 39.5 24.8071 39.5C32.3071 39.5 38.3071 33.455 38.3071 26C38.3071 22.82 37.1971 19.895 35.3521 17.585Z" fill="#276BB0"/>
    <path d="M29.3071 8H20.3071V11H29.3071V8Z" fill="#57ACDC"/>
    <path d="M23.3071 27.5H26.3071V18.5H23.3071V27.5Z" fill="#57ACDC"/>
</svg>
